<svg width="74" height="60" viewBox="0 0 74 60" fill="none" xmlns="http://www.w3.org/2000/svg">
<path d="M14 4L12.5858 5.41421H12.5858L14 4ZM10 0C8.89543 0 8 0.89543 8 2C8 3.10457 8.89543 4 10 4V0ZM57 5L55.5858 6.41421V6.41421L57 5ZM60 43V45C61.1046 45 62 44.1046 62 43H60ZM33 55L34.4142 56.4142L34.4142 56.4142L33 55ZM32.8284 55.1716L31.4142 53.7573L31.4142 53.7574L32.8284 55.1716ZM26.1195 57.9993L26.0955 59.9991C26.1118 59.9993 26.128 59.9993 26.1443 59.9991L26.1195 57.9993ZM19 55L20.4142 53.5858V53.5858L19 55ZM12 4.82843L12.5858 5.41421L15.4142 2.58579L14.8284 2L12 4.82843ZM10 4C10.7501 4 11.4696 4.29799 12 4.82843L14.8284 2C13.5478 0.71942 11.811 0 10 0V4ZM49.7574 0H10V4H49.7574V0ZM58.4142 3.58579C56.1183 1.28985 53.0043 0 49.7574 0V4C51.9434 4 54.04 4.86842 55.5858 6.41421L58.4142 3.58579ZM62 12.2426C62 8.99569 60.7102 5.88173 58.4142 3.58579L55.5858 6.41421C57.1316 7.96001 58 10.0566 58 12.2426H62ZM62 43V12.2426H58V43H62ZM37 45H60V41H37V45ZM38 44C38 44.5523 37.5523 45 37 45V41C35.3431 41 34 42.3431 34 44H38ZM38 47.7574V44H34V47.7574H38ZM34.4142 56.4142C36.7102 54.1183 38 51.0043 38 47.7574H34C34 49.9434 33.1316 52.04 31.5858 53.5858L34.4142 56.4142ZM34.2426 56.5858L34.4142 56.4142L31.5858 53.5858L31.4142 53.7573L34.2426 56.5858ZM26.1443 59.9991C29.1837 59.9615 32.0906 58.7378 34.2426 56.5858L31.4142 53.7574C30.0006 55.1709 28.0912 55.9747 26.0948 55.9994L26.1443 59.9991ZM17.5858 56.4142C19.847 58.6755 22.9017 59.9608 26.0955 59.9991L26.1435 55.9994C23.9933 55.9736 21.9366 55.1082 20.4142 53.5858L17.5858 56.4142ZM14 47.7574C14 51.0043 15.2898 54.1183 17.5858 56.4142L20.4142 53.5858C18.8684 52.04 18 49.9434 18 47.7574H14ZM14 8.82843V47.7574H18V8.82843H14ZM12.5858 5.41421C13.4913 6.31972 14 7.54785 14 8.82843H18C18 6.48698 17.0699 4.24144 15.4142 2.58579L12.5858 5.41421Z" fill="#252525"/>
<path d="M32.8284 55.1716L33 55C34.9209 53.0791 36 50.4739 36 47.7574V44C36 43.4477 36.4477 43 37 43H71C71.5523 43 72 43.4477 72 44V47.7574C72 50.4739 70.9209 53.0791 69 55C67.0791 56.9209 64.4739 58 61.7574 58H26C28.5612 58 31.0174 56.9826 32.8284 55.1716Z" stroke="#252525" stroke-width="4" stroke-linecap="round" stroke-linejoin="round"/>
<path d="M4 4L5.41421 5.41421L5.41421 5.41421L4 4ZM14 4L12.5851 5.41351L12.5858 5.41421L14 4ZM13.9989 3.99893L15.4136 2.58518L15.4128 2.5844L13.9989 3.99893ZM8.82843 4H9.17157V0H8.82843V4ZM5.41421 5.41421C6.31972 4.50871 7.54785 4 8.82843 4V0C6.48698 0 4.24144 0.930135 2.58579 2.58579L5.41421 5.41421ZM4 8.82843C4 7.54785 4.50871 6.31972 5.41421 5.41421L2.58579 2.58579C0.930135 4.24144 0 6.48698 0 8.82843H4ZM4 19V8.82843H0V19H4ZM3 18C3.55229 18 4 18.4477 4 19H0C0 20.6569 1.34315 22 3 22V18ZM15 18H3V22H15V18ZM14 19C14 18.4477 14.4477 18 15 18V22C16.6569 22 18 20.6569 18 19H14ZM14 8.82843V19H18V8.82843H14ZM12.5858 5.41421C13.4913 6.31972 14 7.54785 14 8.82843H18C18 6.48698 17.0699 4.24144 15.4142 2.58579L12.5858 5.41421ZM12.5842 5.41267C12.585 5.41338 12.5856 5.41404 12.5857 5.41409C12.5859 5.4143 12.5855 5.41396 12.5851 5.41351L15.4149 2.58649C15.4141 2.58568 15.4134 2.58498 15.4133 2.58484C15.413 2.58452 15.4133 2.58483 15.4136 2.58518L12.5842 5.41267ZM9.17157 4C10.4518 4 11.6796 4.50842 12.585 5.41345L15.4128 2.5844C13.7573 0.929615 11.5124 0 9.17157 0V4Z" fill="#252525"/>
</svg>
