<svg width="64" height="62" viewBox="0 0 64 62" fill="none" xmlns="http://www.w3.org/2000/svg">
<path d="M56.0892 17.0925C60.9941 25.7155 60.9941 36.2846 56.0892 44.9075L55.9108 45.221C51.0205 53.8184 41.891 59.1285 32 59.1285V59.1285C22.109 59.1285 12.9795 53.8184 8.08916 45.221L7.91084 44.9075C3.00594 36.2846 3.00594 25.7155 7.91084 17.0925L8.08916 16.779C12.9795 8.18161 22.109 2.87151 32 2.87151V2.87151C41.891 2.87151 51.0205 8.18161 55.9108 16.779L56.0892 17.0925Z" stroke="#252525" stroke-width="4" stroke-linecap="square"/>
<path d="M50.1664 52.2769L51.4871 53.7789C52.2168 53.1372 52.3798 52.0639 51.8733 51.2345L50.1664 52.2769ZM13.8335 52.2776L12.1265 51.2353C11.6201 52.0647 11.7831 53.138 12.5129 53.7796L13.8335 52.2776ZM20.2805 47.0207L20.9576 48.9026H20.9576L20.2805 47.0207ZM21.8831 46.444L21.206 44.5622H21.206L21.8831 46.444ZM42.1173 46.444L41.4401 48.3259H41.4401L42.1173 46.444ZM43.7199 47.0207L44.397 45.1388L44.397 45.1388L43.7199 47.0207ZM42.9411 29.5404L40.989 29.1053V29.1053L42.9411 29.5404ZM36.9579 37.1552L36.0733 35.3614L36.9579 37.1552ZM43.0111 29.2265L44.9632 29.6616V29.6616L43.0111 29.2265ZM40.8663 19.688L39.2883 20.9168L40.8663 19.688ZM40.7561 19.5466L42.3341 18.3177V18.3177L40.7561 19.5466ZM23.2442 19.5466L24.8222 20.7755L24.8222 20.7755L23.2442 19.5466ZM23.1341 19.688L21.5562 18.4591L21.5562 18.4591L23.1341 19.688ZM20.9893 29.2265L19.0372 29.6616L19.0372 29.6616L20.9893 29.2265ZM21.0593 29.5404L23.0114 29.1053V29.1053L21.0593 29.5404ZM27.0425 37.1552L27.9271 35.3614L27.0425 37.1552ZM48.8458 50.7749C44.2579 54.8088 38.2949 57.1285 31.9996 57.1285V61.1285C39.2828 61.1285 46.1809 58.4443 51.4871 53.7789L48.8458 50.7749ZM31.9996 57.1285C25.7045 57.1285 19.7419 54.8091 15.1541 50.7756L12.5129 53.7796C17.819 58.4446 24.7167 61.1285 31.9996 61.1285V57.1285ZM19.6034 45.1388C16.414 46.2863 13.8126 48.474 12.1265 51.2353L15.5404 53.3199C16.7632 51.3173 18.6472 49.7339 20.9576 48.9026L19.6034 45.1388ZM21.206 44.5622L19.6034 45.1388L20.9576 48.9026L22.5602 48.3259L21.206 44.5622ZM42.7944 44.5622C35.8172 42.0517 28.1832 42.0517 21.206 44.5622L22.5602 48.3259C28.6621 46.1305 35.3383 46.1305 41.4401 48.3259L42.7944 44.5622ZM44.397 45.1388L42.7944 44.5622L41.4401 48.3259L43.0427 48.9026L44.397 45.1388ZM51.8733 51.2345C50.1872 48.4736 47.5861 46.2862 44.397 45.1388L43.0427 48.9026C45.353 49.7338 47.2368 51.317 48.4596 53.3193L51.8733 51.2345ZM40.989 29.1053C40.3823 31.8274 38.5746 34.1279 36.0733 35.3614L37.8424 38.9489C41.4302 37.1797 44.0229 33.88 44.8932 29.9755L40.989 29.1053ZM41.059 28.7914L40.989 29.1053L44.8932 29.9755L44.9632 29.6616L41.059 28.7914ZM39.2883 20.9168C41.0242 23.1459 41.6736 26.0338 41.059 28.7914L44.9632 29.6616C45.8376 25.7386 44.9137 21.6301 42.4442 18.4591L39.2883 20.9168ZM39.1782 20.7755L39.2883 20.9168L42.4442 18.4591L42.3341 18.3177L39.1782 20.7755ZM32.0002 17.2676C34.8057 17.2676 37.4544 18.562 39.1782 20.7755L42.3341 18.3177C39.8524 15.131 36.0392 13.2676 32.0002 13.2676V17.2676ZM24.8222 20.7755C26.546 18.562 29.1946 17.2676 32.0002 17.2676V13.2676C27.9611 13.2676 24.148 15.131 21.6663 18.3177L24.8222 20.7755ZM24.712 20.9168L24.8222 20.7755L21.6663 18.3177L21.5562 18.4591L24.712 20.9168ZM22.9414 28.7914C22.3268 26.0338 22.9761 23.1459 24.7121 20.9168L21.5562 18.4591C19.0866 21.6301 18.1628 25.7386 19.0372 29.6616L22.9414 28.7914ZM23.0114 29.1053L22.9414 28.7914L19.0372 29.6616L19.1072 29.9755L23.0114 29.1053ZM27.9271 35.3614C25.4257 34.1279 23.6181 31.8274 23.0114 29.1053L19.1072 29.9755C19.9775 33.8799 22.5702 37.1797 26.1579 38.9489L27.9271 35.3614ZM36.0733 35.3614C33.5055 36.6277 30.4949 36.6277 27.9271 35.3614L26.1579 38.9489C29.841 40.7652 34.1593 40.7652 37.8424 38.9489L36.0733 35.3614Z" fill="#252525"/>
</svg>
